<svg width="506" height="315" viewBox="0 0 506 315" fill="none" xmlns="http://www.w3.org/2000/svg">
<path d="M0.639221 251.595L465.348 4.50539C469.249 2.43114 474.093 3.91209 476.167 7.8132L502.192 56.7586C504.266 60.6597 502.785 65.5037 498.884 67.5779L34.1755 314.668L0.639221 251.595Z" fill="black"/>
<g clip-path="url(#clip0_101_107)">
<path d="M288.8 136.222L287.358 136.989C286.88 137.243 286.698 137.837 286.952 138.315C287.206 138.793 287.8 138.974 288.278 138.72L288.855 138.413C289.333 138.159 289.927 138.341 290.181 138.819C290.435 139.297 290.253 139.89 289.775 140.145L288.333 140.912M287.339 136.259L287.646 136.836M289.487 140.298L289.794 140.875M292.029 136.726L292.034 136.723M285.104 140.408L285.11 140.405M281.63 139.442L283.962 143.828C284.306 144.474 284.478 144.797 284.735 144.977C284.961 145.135 285.231 145.218 285.507 145.213C285.821 145.208 286.144 145.036 286.79 144.692L294.638 140.52C295.284 140.176 295.607 140.004 295.787 139.747C295.946 139.521 296.028 139.251 296.024 138.975C296.018 138.661 295.846 138.338 295.503 137.692L293.171 133.306C292.827 132.66 292.655 132.337 292.398 132.157C292.172 131.998 291.902 131.916 291.626 131.92C291.312 131.926 290.989 132.098 290.343 132.441L282.495 136.614C281.849 136.958 281.526 137.13 281.346 137.387C281.187 137.613 281.105 137.883 281.109 138.159C281.115 138.473 281.287 138.796 281.63 139.442ZM292.317 136.573C292.402 136.732 292.341 136.93 292.182 137.015C292.023 137.099 291.825 137.039 291.74 136.879C291.655 136.72 291.716 136.522 291.875 136.438C292.035 136.353 292.232 136.413 292.317 136.573ZM285.393 140.254C285.478 140.414 285.417 140.612 285.258 140.696C285.098 140.781 284.901 140.721 284.816 140.561C284.731 140.402 284.792 140.204 284.951 140.119C285.11 140.035 285.308 140.095 285.393 140.254Z" stroke="#FF5555" stroke-width="1.30704" stroke-linecap="round" stroke-linejoin="round"/>
</g>
<circle cx="288.567" cy="138.567" r="15.3578" transform="rotate(-28 288.567 138.567)" stroke="#FF5555" stroke-width="0.653521"/>
<path d="M311.134 120.567L309.753 117.97L313.928 115.75L313.188 114.358L309.013 116.578L308.179 115.01L312.51 112.707L311.765 111.305L305.876 114.436L309.576 121.395L311.134 120.567ZM314.638 111.35L313.986 110.124L312.428 110.952L313.08 112.178L314.638 111.35ZM317.686 117.083L314.919 111.879L313.361 112.708L316.128 117.911L317.686 117.083ZM320.059 115.821L318.662 113.193C318.193 112.31 318.336 111.728 319.323 111.203C320.278 110.695 320.809 110.866 321.251 111.697L322.698 114.418L324.256 113.59L322.533 110.349C321.92 109.196 320.758 108.641 319.336 109.398C317.975 110.121 317.794 111.284 318.122 112.228L318.029 112.278L317.178 110.678L315.735 111.446L318.502 116.649L320.059 115.821ZM326.699 112.424C327.851 111.811 328.319 110.936 328.127 109.999L328.21 109.955L328.845 111.149L330.299 110.376L328.676 107.323C327.952 105.962 326.657 105.505 324.922 106.427C323.208 107.339 322.603 108.806 323.288 110.094L323.305 110.125L324.873 109.291L324.851 109.25C324.536 108.658 324.748 108.279 325.537 107.859C326.368 107.417 326.768 107.444 327.127 108.119L327.232 108.317L325.121 109.732C324.07 110.438 323.753 111.219 324.162 111.988C324.626 112.86 325.577 113.021 326.699 112.424ZM325.675 111.05C325.542 110.801 325.653 110.608 326.011 110.378L327.707 109.21C328.058 109.969 327.619 110.522 326.56 111.086C326.103 111.329 325.824 111.33 325.675 111.05ZM332.647 109.128L331.25 106.5C330.78 105.617 330.924 105.035 331.91 104.51C332.866 104.002 333.396 104.173 333.838 105.004L335.285 107.725L336.843 106.897L335.12 103.656C334.507 102.503 333.346 101.948 331.923 102.705C330.562 103.428 330.381 104.591 330.71 105.535L330.616 105.585L329.766 103.985L328.322 104.753L331.089 109.956L332.647 109.128ZM340.46 105.107C342.132 104.218 342.794 102.707 342.082 101.367L342.004 101.222L340.457 102.045L340.501 102.128C340.854 102.792 340.493 103.291 339.683 103.722C338.759 104.213 338.15 104.097 337.642 103.141C337.129 102.175 337.372 101.606 338.297 101.115C339.107 100.684 339.722 100.663 340.076 101.328L340.12 101.411L341.667 100.588L341.59 100.443C340.872 99.0924 339.255 98.8067 337.582 99.6958C335.796 100.646 335.211 102.302 336.095 103.964C336.967 105.605 338.673 106.057 340.46 105.107ZM346.708 101.785C348.359 100.907 349.04 99.5322 348.438 98.4001L348.378 98.2859L346.82 99.1143L346.875 99.2181C347.112 99.6647 346.917 100.075 345.993 100.566C344.985 101.102 344.429 100.958 343.962 100.18L348.2 97.9272C348.127 97.7396 348.076 97.5935 347.977 97.4066C347.11 95.7759 345.502 95.4846 343.799 96.3903C342.085 97.3016 341.469 98.9746 342.353 100.636C343.336 102.485 344.973 102.707 346.708 101.785ZM344.414 97.6221C345.328 97.1361 345.904 97.2164 346.31 97.8798L343.547 99.3488C343.261 98.6351 343.49 98.1136 344.414 97.6221Z" fill="white"/>
<path d="M319.392 136.9L317.122 132.632L316.545 131.646L316.628 131.602L317.589 132.383L321.56 135.215L322.91 134.497L322.783 129.622L322.673 128.388L322.756 128.344L323.25 129.373L325.52 133.642L326.641 133.046L322.941 126.087L321.415 126.899L321.573 131.983L321.728 133.753L321.645 133.797L320.244 132.69L316.097 129.726L314.57 130.538L318.27 137.497L319.392 136.9ZM330.376 131.193C332.1 130.276 332.673 128.573 331.828 126.984C330.972 125.374 329.245 124.907 327.521 125.823C325.807 126.735 325.229 128.428 326.085 130.038C326.93 131.627 328.662 132.104 330.376 131.193ZM329.846 130.196C328.6 130.859 327.765 130.543 327.186 129.452C326.6 128.351 326.799 127.473 328.046 126.81C329.302 126.142 330.142 126.468 330.727 127.569C331.307 128.66 331.103 129.528 329.846 130.196ZM336.508 127.933C337.962 127.16 338.614 126.08 338.1 125.114C337.647 124.263 336.866 124.145 335.557 124.641L334.274 125.11C333.44 125.421 333.155 125.386 332.94 124.98C332.68 124.492 332.902 124.108 333.847 123.605C334.99 122.998 335.473 123.154 335.798 123.767L335.832 123.829L336.943 123.238L336.926 123.207C336.275 121.982 334.982 121.856 333.404 122.696C331.814 123.54 331.336 124.621 331.817 125.524C332.275 126.386 333.088 126.487 334.131 126.093L335.643 125.528C336.435 125.24 336.756 125.243 336.983 125.669C337.226 126.126 337.035 126.493 336.028 127.029C334.947 127.604 334.426 127.601 334.067 126.926L334.023 126.843L332.901 127.439L332.918 127.47C333.553 128.665 334.846 128.816 336.508 127.933ZM343.058 124.317L342.522 123.309L341.587 123.807C340.943 124.149 340.564 124.137 340.227 123.504L338.941 121.084L340.81 120.09L340.313 119.155L338.443 120.149L337.842 119.017L336.73 119.608L337.332 120.74L336.46 121.204L336.957 122.139L337.829 121.675L339.149 124.157C339.817 125.414 340.762 125.537 341.874 124.947L343.058 124.317ZM346.656 122.404L345.541 120.306L347.826 119.091C349.373 118.268 349.958 116.811 349.14 115.274C348.317 113.726 346.789 113.407 345.241 114.23L341.834 116.041L345.534 123L346.656 122.404ZM345.673 115.292C346.722 114.735 347.472 114.842 348.019 115.87C348.565 116.899 348.235 117.581 347.186 118.138L345.005 119.298L343.492 116.452L345.673 115.292ZM354.912 118.147C356.636 117.23 357.209 115.527 356.364 113.938C355.508 112.328 353.781 111.861 352.057 112.777C350.343 113.689 349.765 115.382 350.621 116.992C351.466 118.581 353.198 119.058 354.912 118.147ZM354.382 117.15C353.136 117.813 352.301 117.497 351.722 116.406C351.136 115.305 351.335 114.427 352.582 113.764C353.838 113.096 354.678 113.422 355.263 114.523C355.843 115.614 355.639 116.482 354.382 117.15ZM360.609 117.25L358.897 114.03L358.938 114.008C359.648 114.843 360.722 115.058 361.885 114.439C363.495 113.583 363.804 112.034 362.953 110.434C362.103 108.835 360.619 108.225 359.02 109.075C357.805 109.721 357.387 110.69 357.687 111.756L357.594 111.805L356.831 110.372L355.803 110.919L359.487 117.846L360.609 117.25ZM358.344 112.992L358.295 112.898C357.704 111.787 358.06 110.904 359.213 110.291C360.294 109.717 361.169 109.784 361.831 111.031C362.489 112.267 362.071 113.035 360.96 113.626C359.859 114.211 358.908 114.051 358.344 112.992ZM367.306 111.557C368.635 110.851 368.879 109.655 368.581 108.694L368.643 108.661L369.494 110.261L370.522 109.714L367.777 104.552L366.666 105.143L368.025 107.698C368.621 108.82 368.401 109.683 367.258 110.29C366.167 110.87 365.461 110.62 364.948 109.654L363.457 106.849L362.345 107.44L363.996 110.546C364.632 111.74 365.851 112.331 367.306 111.557ZM372.663 108.576L368.963 101.617L367.841 102.213L371.541 109.172L372.663 108.576ZM375.273 107.321C376.447 106.697 376.991 105.741 376.797 104.725L376.87 104.687L377.555 105.974L378.583 105.428L376.915 102.291C376.258 101.055 375.046 100.554 373.405 101.426C371.764 102.299 371.257 103.701 371.881 104.875L371.903 104.916L373.014 104.325L372.992 104.284C372.589 103.526 372.891 102.965 373.846 102.457C374.833 101.933 375.367 102.035 375.82 102.887L375.98 103.188L373.765 104.685C372.808 105.341 372.385 106.099 372.81 106.898C373.263 107.75 374.203 107.89 375.273 107.321ZM373.893 106.229C373.678 105.824 373.887 105.54 374.43 105.158L376.334 103.853C376.875 104.871 376.317 105.727 375.144 106.351C374.5 106.693 374.114 106.645 373.893 106.229ZM380.706 104.299L379.165 101.401C378.674 100.477 378.778 99.7952 379.661 99.3258C380.429 98.9171 380.923 99.0942 381.315 99.8317L381.558 100.289L382.67 99.6977L382.311 99.0226C381.792 98.0463 380.835 97.4756 379.662 98.0997C378.602 98.663 378.395 99.6259 378.681 100.54L378.608 100.578L377.868 99.1865L376.84 99.7333L379.585 104.895L380.706 104.299ZM387.351 100.766L387.19 98.5334L390.867 96.5784L392.627 97.9605L393.894 97.2867L387.089 91.979L385.51 92.8185L386.104 101.429L387.351 100.766ZM386.919 94.6671L386.8 93.465L386.883 93.4208L387.812 94.1921L389.884 95.8084L387.101 97.2885L386.919 94.6671ZM397.076 95.7283C398.623 94.9054 399.292 93.431 398.607 92.1431L398.546 92.0288L397.435 92.6197L397.473 92.6924C397.899 93.4922 397.527 94.1961 396.519 94.7318C395.356 95.3504 394.539 95.0656 393.948 93.9543C393.346 92.8221 393.572 91.9955 394.736 91.377C395.743 90.8413 396.535 90.9267 396.96 91.7265L396.993 91.7888L398.104 91.1979L398.049 91.094C397.364 89.8061 395.768 89.5356 394.221 90.3585C392.517 91.2642 391.98 92.9353 392.836 94.5452C393.681 96.1343 395.372 96.634 397.076 95.7283ZM403.192 92.4762C404.74 91.6533 405.408 90.1789 404.723 88.891L404.662 88.7767L403.551 89.3677L403.59 89.4404C404.015 90.2401 403.643 90.9441 402.636 91.4798C401.472 92.0983 400.655 91.8136 400.064 90.7022C399.462 89.5701 399.689 88.7435 400.852 88.1249C401.859 87.5893 402.651 87.6747 403.076 88.4744L403.109 88.5367L404.221 87.9458L404.165 87.842C403.481 86.554 401.885 86.2835 400.337 87.1064C398.634 88.0121 398.097 89.6832 398.953 91.2931C399.798 92.8822 401.489 93.3819 403.192 92.4762ZM409.34 89.2076C411.064 88.2908 411.637 86.5872 410.792 84.9981C409.936 83.3882 408.209 82.921 406.484 83.8378C404.771 84.749 404.192 86.4422 405.048 88.0521C405.893 89.6412 407.626 90.1188 409.34 89.2076ZM408.809 88.2105C407.563 88.8732 406.729 88.5573 406.149 87.4667C405.564 86.3657 405.763 85.4872 407.009 84.8245C408.266 84.1563 409.105 84.4825 409.691 85.5835C410.271 86.6741 410.066 87.5422 408.809 88.2105ZM415.181 86.1018C416.51 85.3949 416.754 84.1995 416.456 83.2387L416.518 83.2056L417.369 84.8051L418.397 84.2583L415.652 79.0963L414.541 79.6872L415.9 82.2423C416.496 83.364 416.276 84.2273 415.133 84.8348C414.042 85.4146 413.336 85.1639 412.823 84.198L411.332 81.3937L410.22 81.9846L411.872 85.0901C412.507 86.2846 413.726 86.875 415.181 86.1018ZM420.538 83.12L419.179 80.565C418.583 79.4432 418.783 78.591 419.915 77.989C420.985 77.4202 421.68 77.6764 422.194 78.6424L423.685 81.4467L424.807 80.8503L423.156 77.7447C422.52 76.5503 421.301 75.9599 419.867 76.722C418.559 77.4178 418.315 78.6132 418.623 79.5685L418.55 79.6072L417.7 78.0077L416.671 78.5544L419.416 83.7165L420.538 83.12ZM429.192 78.5184L428.657 77.511L427.722 78.008C427.078 78.3504 426.699 78.3388 426.362 77.7053L425.075 75.2852L426.945 74.2912L426.448 73.3564L424.578 74.3504L423.976 73.2183L422.865 73.8092L423.467 74.9414L422.594 75.4053L423.091 76.34L423.964 75.8761L425.284 78.3585C425.952 79.6153 426.897 79.7389 428.008 79.148L429.192 78.5184ZM427.951 71.7845L427.316 70.59L426.194 71.1864L426.829 72.3809L427.951 71.7845ZM431.016 77.5489L428.271 72.3869L427.149 72.9833L429.894 78.1454L431.016 77.5489ZM433.176 76.4002L431.818 73.8451C431.221 72.7234 431.421 71.8711 432.553 71.2692C433.623 70.7004 434.319 70.9566 434.832 71.9225L436.323 74.7268L437.445 74.1304L435.794 71.0249C435.159 69.8304 433.939 69.24 432.505 70.0021C431.197 70.698 430.953 71.8934 431.261 72.8487L431.188 72.8873L430.338 71.2878L429.31 71.8346L432.054 76.9966L433.176 76.4002ZM440.439 71.9387C441.613 71.3146 442.011 70.3838 441.784 69.5054L441.856 69.4667L442.53 70.7339C443.143 71.8868 442.888 72.4352 441.715 73.0592C440.614 73.6446 440.028 73.5961 439.631 72.8483L438.519 73.4392C439.182 74.6856 440.623 74.8389 442.149 74.0271C443.842 73.1269 444.531 71.8152 443.608 70.0806L441.184 65.521L440.156 66.0677L440.84 67.3556L440.778 67.3888C440.111 66.5845 439.041 66.5271 437.961 67.1015C436.392 67.9354 435.95 69.4094 436.713 70.8427C437.475 72.2761 438.902 72.756 440.439 71.9387ZM437.845 70.2408C437.281 69.1814 437.722 68.481 438.802 67.9066C439.892 67.3267 440.774 67.431 441.238 68.3034L441.315 68.4488C441.801 69.3628 441.432 70.172 440.289 70.7795C439.23 71.3428 438.408 71.3002 437.845 70.2408ZM447.469 68.8008L447.307 66.5683L450.984 64.6133L452.745 65.9953L454.012 65.3216L447.206 60.0139L445.628 60.8533L446.222 69.4635L447.469 68.8008ZM447.037 62.702L446.917 61.4999L447 61.4557L447.93 62.227L450.002 63.8433L447.218 65.3233L447.037 62.702ZM456.592 66.2147L454.88 62.9949L454.921 62.9728C455.632 63.8075 456.705 64.0227 457.869 63.4042C459.479 62.5482 459.787 60.9986 458.937 59.399C458.086 57.7995 456.603 57.1894 455.003 58.0399C453.788 58.686 453.37 59.6543 453.67 60.7203L453.577 60.77L452.815 59.3366L451.787 59.8834L455.47 66.8111L456.592 66.2147ZM454.328 61.9562L454.278 61.8628C453.687 60.7514 454.044 59.8689 455.197 59.2559C456.277 58.6816 457.152 58.7491 457.815 59.9955C458.472 61.2315 458.055 61.9997 456.943 62.5906C455.842 63.176 454.891 63.0157 454.328 61.9562ZM463.144 62.7307L461.432 59.5109L461.474 59.4888C462.184 60.3236 463.258 60.5387 464.421 59.9202C466.031 59.0642 466.339 57.5146 465.489 55.9151C464.639 54.3156 463.155 53.7054 461.556 54.5559C460.34 55.2021 459.923 56.1703 460.223 57.2363L460.129 57.286L459.367 55.8527L458.339 56.3994L462.023 63.3272L463.144 62.7307ZM460.88 58.4723L460.83 58.3788C460.239 57.2675 460.596 56.385 461.749 55.772C462.829 55.1976 463.705 55.2651 464.367 56.5115C465.024 57.7475 464.607 58.5157 463.496 59.1067C462.395 59.6921 461.443 59.5317 460.88 58.4723Z" fill="white"/>
<g clip-path="url(#clip1_101_107)">
<path d="M54.0609 265.476C52.1488 266.493 49.7746 265.767 48.7579 263.855L47.0534 260.649C46.9265 260.41 46.863 260.291 46.8469 260.177C46.82 259.986 46.8792 259.792 47.0084 259.649C47.0855 259.563 47.2049 259.5 47.4437 259.373L52.7011 256.577C52.9399 256.45 53.0593 256.387 53.1734 256.371C53.3647 256.344 53.5581 256.403 53.7016 256.532C53.7873 256.609 53.8508 256.729 53.9777 256.967L55.6822 260.173C56.6989 262.085 55.973 264.46 54.0609 265.476ZM54.0609 265.476L54.9814 267.207M54.1482 257.288L55.5907 256.521C55.8596 256.378 55.994 256.307 56.1234 256.294C56.296 256.278 56.468 256.33 56.6018 256.44C56.7021 256.523 56.7735 256.658 56.9165 256.926L57.0699 257.215C57.3552 257.751 57.4979 258.02 57.5559 258.271C57.7135 258.954 57.495 259.668 56.9827 260.146C56.794 260.322 56.5257 260.465 55.989 260.75M47.2239 260.97L45.7813 261.737C45.5125 261.88 45.378 261.951 45.2953 262.052C45.1851 262.185 45.1325 262.357 45.1491 262.53C45.1616 262.659 45.233 262.794 45.376 263.063L45.5294 263.351C45.8147 263.888 45.9574 264.156 46.1334 264.345C46.6111 264.857 47.3258 265.076 48.0083 264.918C48.2598 264.86 48.5281 264.717 49.0647 264.432M53.5799 270.913L58.8373 268.118C58.9789 268.042 59.0327 267.867 58.9574 267.725C58.3549 266.592 56.9479 266.162 55.8148 266.764L54.1479 267.65C53.0148 268.253 52.5846 269.66 53.1871 270.793C53.2624 270.935 53.4383 270.988 53.5799 270.913Z" stroke="#FF5555" stroke-width="1.30704" stroke-linecap="round" stroke-linejoin="round"/>
</g>
<circle cx="53.1407" cy="263.745" r="15.3578" transform="rotate(-28 53.1407 263.745)" stroke="#FF5555" stroke-width="0.653521"/>
<path d="M75.427 245.894L75.2743 244.004L78.7538 242.153L80.2255 243.343L82.012 242.393L75.2478 237.063L73.0251 238.245L73.682 246.822L75.427 245.894ZM74.9793 240.417L74.8308 239.11L74.945 239.049L75.9452 239.903L77.4058 241.072L75.1312 242.281L74.9793 240.417ZM85.2038 240.829C86.876 239.94 87.5381 238.429 86.8257 237.089L86.7484 236.943L85.2008 237.766L85.245 237.849C85.5984 238.514 85.2373 239.013 84.4271 239.443C83.5027 239.935 82.8946 239.819 82.3865 238.863C81.8729 237.897 82.1165 237.328 83.0409 236.836C83.8511 236.406 84.4663 236.385 84.8197 237.05L84.8639 237.133L86.4115 236.31L86.3342 236.164C85.6162 234.814 83.9988 234.528 82.3266 235.418C80.5401 236.367 79.9554 238.024 80.839 239.686C81.7115 241.327 83.4173 241.779 85.2038 240.829ZM90.1916 238.044L88.8055 235.437C88.3416 234.564 88.4371 233.967 89.4861 233.409C90.4625 232.89 91.0021 233.003 91.466 233.876L92.9129 236.597L94.4708 235.768L92.7754 232.58C92.1348 231.375 90.9633 230.825 89.5611 231.571C88.2317 232.278 88.0496 233.414 88.3529 234.385L88.2698 234.429L86.4915 231.085L84.9335 231.913L88.6336 238.872L90.1916 238.044ZM93.7665 228.789L93.1149 227.563L91.5569 228.391L92.2086 229.617L93.7665 228.789ZM96.815 234.522L94.0482 229.318L92.4902 230.147L95.257 235.35L96.815 234.522ZM100.449 232.723C102.1 231.845 102.781 230.47 102.179 229.338L102.119 229.224L100.561 230.052L100.616 230.156C100.853 230.603 100.658 231.013 99.7339 231.504C98.7264 232.04 98.1702 231.896 97.7035 231.119L101.941 228.865C101.868 228.678 101.817 228.532 101.718 228.345C100.851 226.714 99.2435 226.423 97.5401 227.328C95.8263 228.24 95.2105 229.913 96.0941 231.575C97.0771 233.423 98.714 233.645 100.449 232.723ZM98.1551 228.56C99.0691 228.074 99.6447 228.155 100.051 228.818L97.288 230.287C97.0017 229.573 97.2307 229.052 98.1551 228.56ZM107.732 228.717L107.344 222.249L105.641 223.154L106.033 227.676L105.929 227.731L102.411 224.872L100.676 225.794L105.811 229.739L107.732 228.717ZM113.34 225.869C114.992 224.99 115.673 223.616 115.071 222.484L115.01 222.369L113.452 223.198L113.508 223.302C113.745 223.748 113.55 224.158 112.626 224.65C111.618 225.185 111.062 225.042 110.595 224.264L114.833 222.011C114.76 221.823 114.709 221.677 114.609 221.49C113.742 219.859 112.135 219.568 110.432 220.474C108.718 221.385 108.102 223.058 108.986 224.72C109.969 226.569 111.606 226.791 113.34 225.869ZM111.047 221.706C111.961 221.22 112.536 221.3 112.943 221.963L110.18 223.432C109.893 222.718 110.122 222.197 111.047 221.706ZM118.308 223.094L116.911 220.466C116.43 219.562 116.502 219.045 117.447 218.542C118.34 218.067 118.812 218.229 119.271 219.091L120.718 221.813L122.276 220.984L120.878 218.356C120.398 217.453 120.469 216.935 121.414 216.433C122.308 215.958 122.78 216.12 123.238 216.982L124.685 219.703L126.243 218.875L124.52 215.634C123.891 214.45 122.767 213.915 121.427 214.627C120.087 215.34 119.994 216.442 120.339 217.391L120.245 217.441C119.617 216.536 118.612 216.124 117.408 216.765C116.099 217.461 116.01 218.547 116.35 219.486L116.266 219.53L115.427 217.951L113.983 218.719L116.75 223.922L118.308 223.094ZM129.853 217.088C131.505 216.21 132.186 214.836 131.584 213.704L131.523 213.589L129.965 214.418L130.02 214.522C130.258 214.968 130.063 215.378 129.139 215.87C128.131 216.405 127.575 216.261 127.108 215.484L131.346 213.231C131.273 213.043 131.222 212.897 131.122 212.71C130.255 211.079 128.648 210.788 126.945 211.694C125.231 212.605 124.615 214.278 125.499 215.94C126.482 217.789 128.119 218.011 129.853 217.088ZM127.56 212.925C128.474 212.44 129.049 212.52 129.455 213.183L126.693 214.652C126.406 213.938 126.635 213.417 127.56 212.925ZM134.821 214.314L133.424 211.686C132.954 210.803 133.098 210.221 134.084 209.696C135.04 209.188 135.57 209.359 136.012 210.19L137.459 212.911L139.017 212.083L137.294 208.842C136.681 207.689 135.52 207.134 134.097 207.891C132.736 208.614 132.555 209.777 132.884 210.721L132.79 210.771L131.94 209.171L130.496 209.939L133.263 215.142L134.821 214.314ZM143.472 209.714L142.726 208.312L141.791 208.809C141.241 209.102 140.972 209.072 140.696 208.552L139.707 206.693L141.39 205.799L140.705 204.511L139.022 205.405L138.486 204.398L136.929 205.226L137.464 206.234L136.644 206.67L137.328 207.958L138.149 207.522L139.231 209.557C139.927 210.866 140.968 211.045 142.184 210.399L143.472 209.714ZM146.738 208.111C148.348 207.255 148.972 206.097 148.452 205.121C147.994 204.259 147.226 204.067 145.752 204.652L144.568 205.107C143.839 205.389 143.633 205.352 143.489 205.082C143.312 204.75 143.438 204.51 144.217 204.095C145.172 203.587 145.496 203.695 145.723 204.121L145.756 204.183L147.314 203.355L147.297 203.324C146.623 202.056 145.315 201.926 143.612 202.832C141.825 203.782 141.433 204.923 141.919 205.837C142.383 206.709 143.213 206.868 144.312 206.43L145.871 205.827C146.527 205.585 146.727 205.585 146.882 205.876C147.048 206.187 146.922 206.427 146.091 206.869C145.208 207.338 144.851 207.368 144.603 206.901L144.553 206.808L142.995 207.636L143.012 207.667C143.652 208.872 144.983 209.044 146.738 208.111Z" fill="white"/>
<path d="M86.8324 260.555C88.2658 259.792 88.6789 258.64 88.0439 257.446C87.5579 256.532 86.6338 256.197 85.378 256.692L85.3393 256.619C86.3325 255.931 86.4636 255.075 86.0274 254.255C85.442 253.154 84.3164 252.966 82.9869 253.673L79.092 255.744L82.7921 262.703L86.8324 260.555ZM80.739 256.16L83.398 254.747C84.1769 254.332 84.7006 254.44 85.0485 255.095C85.3965 255.749 85.1619 256.26 84.383 256.674L81.7552 258.072L80.739 256.16ZM82.2467 258.996L85.051 257.505C85.8716 257.069 86.4527 257.159 86.8393 257.886C87.2424 258.645 87.003 259.172 86.1721 259.613L83.3678 261.104L82.2467 258.996ZM92.4438 257.704C93.981 256.887 94.6581 255.554 94.0727 254.453L94.023 254.36L92.9013 254.956L92.9454 255.039C93.2713 255.652 93.0124 256.243 91.9322 256.817C90.7378 257.452 89.968 257.182 89.3963 256.207L93.7793 253.876C93.7277 253.704 93.6607 253.553 93.5613 253.366C92.7274 251.798 91.1674 251.495 89.5679 252.345C87.8853 253.24 87.3587 254.906 88.2147 256.516C89.1314 258.24 90.7509 258.604 92.4438 257.704ZM90.0165 253.239C91.1175 252.654 91.911 252.818 92.4191 253.774L92.4301 253.795L89.0753 255.578C88.6461 254.621 88.874 253.847 90.0165 253.239ZM98.3941 254.54C99.8483 253.767 100.5 252.688 99.9865 251.722C99.5336 250.87 98.7518 250.753 97.4434 251.249L96.1606 251.718C95.3264 252.028 95.0413 251.993 94.826 251.588C94.5664 251.1 94.7883 250.715 95.7335 250.213C96.876 249.605 97.3588 249.762 97.6846 250.374L97.7178 250.437L98.8291 249.846L98.8125 249.815C98.1609 248.589 96.8684 248.464 95.2897 249.303C93.7006 250.148 93.2224 251.228 93.7029 252.132C94.1613 252.994 94.9742 253.095 96.0168 252.7L97.5288 252.136C98.3214 251.848 98.6425 251.85 98.8689 252.276C99.1119 252.733 98.9212 253.101 97.9137 253.637C96.8335 254.211 96.3124 254.208 95.9535 253.533L95.9093 253.45L94.7876 254.047L94.8041 254.078C95.4392 255.272 96.7323 255.424 98.3941 254.54ZM104.944 250.925L104.408 249.917L103.473 250.414C102.829 250.756 102.45 250.745 102.113 250.111L100.827 247.691L102.696 246.697L102.199 245.762L100.33 246.757L99.7277 245.624L98.6163 246.215L99.2183 247.347L98.3458 247.811L98.8428 248.746L99.7153 248.282L101.035 250.765C101.703 252.021 102.648 252.145 103.76 251.554L104.944 250.925ZM108.542 249.011L107.057 246.217L111.315 243.953L110.785 242.956L106.527 245.22L105.378 243.06L109.792 240.713L109.256 239.705L103.72 242.649L107.421 249.608L108.542 249.011ZM111.847 239.86L111.212 238.665L110.09 239.262L110.725 240.456L111.847 239.86ZM114.912 245.624L112.167 240.462L111.046 241.059L113.79 246.221L114.912 245.624ZM117.073 244.476L115.714 241.92C115.118 240.799 115.317 239.947 116.449 239.345C117.519 238.776 118.215 239.032 118.729 239.998L120.22 242.802L121.341 242.206L119.69 239.1C119.055 237.906 117.835 237.315 116.402 238.078C115.093 238.773 114.849 239.969 115.158 240.924L115.085 240.963L114.234 239.363L113.206 239.91L115.951 245.072L117.073 244.476ZM123.913 240.972C125.086 240.348 125.631 239.392 125.437 238.376L125.51 238.338L126.194 239.625L127.223 239.079L125.555 235.942C124.898 234.706 123.685 234.205 122.044 235.077C120.403 235.95 119.896 237.352 120.52 238.526L120.542 238.567L121.654 237.976L121.632 237.935C121.228 237.177 121.53 236.616 122.486 236.108C123.472 235.584 124.006 235.686 124.459 236.538L124.619 236.839L122.405 238.336C121.448 238.992 121.025 239.75 121.45 240.549C121.903 241.401 122.843 241.541 123.913 240.972ZM122.533 239.88C122.317 239.475 122.526 239.191 123.069 238.809L124.973 237.504C125.514 238.522 124.957 239.378 123.783 240.002C123.139 240.344 122.754 240.296 122.533 239.88ZM129.346 237.95L127.987 235.395C127.391 234.273 127.59 233.421 128.722 232.819C129.792 232.25 130.488 232.506 131.002 233.472L132.493 236.277L133.614 235.68L131.963 232.575C131.328 231.38 130.108 230.79 128.675 231.552C127.366 232.248 127.123 233.443 127.431 234.398L127.358 234.437L126.507 232.838L125.479 233.384L128.224 238.546L129.346 237.95ZM137.276 233.866C138.824 233.043 139.492 231.569 138.807 230.281L138.746 230.167L137.635 230.758L137.674 230.83C138.099 231.63 137.727 232.334 136.72 232.87C135.556 233.488 134.739 233.204 134.148 232.092C133.546 230.96 133.773 230.134 134.936 229.515C135.943 228.979 136.735 229.065 137.16 229.865L137.193 229.927L138.305 229.336L138.249 229.232C137.565 227.944 135.969 227.674 134.421 228.497C132.718 229.402 132.181 231.073 133.037 232.683C133.882 234.272 135.573 234.772 137.276 233.866ZM143.382 230.62C144.919 229.802 145.596 228.47 145.011 227.369L144.961 227.275L143.84 227.872L143.884 227.955C144.21 228.568 143.951 229.158 142.87 229.733C141.676 230.368 140.906 230.098 140.335 229.123L144.718 226.792C144.666 226.62 144.599 226.469 144.5 226.282C143.666 224.714 142.106 224.411 140.506 225.261C138.824 226.156 138.297 227.821 139.153 229.431C140.07 231.155 141.689 231.52 143.382 230.62ZM140.955 226.155C142.056 225.57 142.849 225.734 143.357 226.689L143.368 226.71L140.014 228.494C139.584 227.536 139.812 226.762 140.955 226.155ZM149.338 227.32L149.177 225.087L152.854 223.132L154.615 224.514L155.882 223.84L149.076 218.533L147.497 219.372L148.092 227.982L149.338 227.32ZM148.907 221.221L148.787 220.019L148.87 219.974L149.8 220.746L151.872 222.362L149.088 223.842L148.907 221.221ZM158.462 224.733L156.75 221.514L156.791 221.492C157.502 222.326 158.575 222.541 159.739 221.923C161.348 221.067 161.657 219.517 160.806 217.918C159.956 216.318 158.473 215.708 156.873 216.559C155.658 217.205 155.24 218.173 155.54 219.239L155.447 219.289L154.685 217.855L153.657 218.402L157.34 225.33L158.462 224.733ZM156.198 220.475L156.148 220.381C155.557 219.27 155.914 218.388 157.067 217.775C158.147 217.2 159.022 217.268 159.685 218.514C160.342 219.75 159.924 220.518 158.813 221.109C157.712 221.695 156.761 221.534 156.198 220.475ZM165.014 221.249L163.302 218.03L163.344 218.008C164.054 218.842 165.128 219.057 166.291 218.439C167.901 217.583 168.209 216.033 167.359 214.434C166.508 212.834 165.025 212.224 163.425 213.075C162.21 213.721 161.792 214.689 162.093 215.755L161.999 215.805L161.237 214.371L160.209 214.918L163.892 221.846L165.014 221.249ZM162.75 216.991L162.7 216.898C162.109 215.786 162.466 214.904 163.619 214.291C164.699 213.716 165.574 213.784 166.237 215.03C166.894 216.266 166.477 217.034 165.365 217.625C164.264 218.211 163.313 218.05 162.75 216.991ZM174.753 213.939C176.955 212.769 177.638 210.594 176.483 208.423C175.329 206.252 173.145 205.602 170.943 206.773C168.762 207.932 168.069 210.113 169.223 212.283C170.377 214.454 172.572 215.099 174.753 213.939ZM174.179 212.859C172.528 213.737 171.33 213.388 170.407 211.654C169.485 209.919 169.86 208.721 171.512 207.843C173.163 206.964 174.377 207.318 175.299 209.053C176.222 210.787 175.83 211.981 174.179 212.859ZM180.284 210.866L178.925 208.31C178.329 207.189 178.529 206.336 179.661 205.735C180.73 205.166 181.426 205.422 181.94 206.388L183.431 209.192L184.553 208.596L182.901 205.49C182.266 204.296 181.046 203.705 179.613 204.467C178.304 205.163 178.061 206.359 178.369 207.314L178.296 207.353L177.446 205.753L176.417 206.3L179.162 211.462L180.284 210.866ZM188.449 206.524L187.333 204.426L189.618 203.211C191.166 202.388 191.751 200.932 190.933 199.394C190.11 197.847 188.581 197.527 187.034 198.35L183.627 200.162L187.327 207.12L188.449 206.524ZM187.466 199.413C188.515 198.855 189.265 198.963 189.811 199.991C190.358 201.019 190.028 201.701 188.979 202.259L186.798 203.418L185.285 200.573L187.466 199.413ZM195.133 202.97L191.433 196.011L190.311 196.607L194.012 203.566L195.133 202.97ZM197.744 201.715C198.917 201.091 199.462 200.136 199.268 199.12L199.341 199.081L200.025 200.369L201.054 199.822L199.386 196.685C198.729 195.449 197.516 194.948 195.875 195.821C194.234 196.693 193.727 198.095 194.351 199.269L194.373 199.311L195.485 198.72L195.463 198.678C195.059 197.92 195.361 197.36 196.317 196.852C197.303 196.327 197.838 196.429 198.29 197.281L198.451 197.582L196.236 199.08C195.279 199.735 194.856 200.493 195.281 201.293C195.734 202.144 196.674 202.284 197.744 201.715ZM196.364 200.624C196.148 200.219 196.357 199.934 196.9 199.552L198.804 198.247C199.345 199.265 198.788 200.121 197.614 200.745C196.97 201.087 196.585 201.039 196.364 200.624ZM203.825 200.614C204.884 200.05 205.317 199.461 205.251 198.31L204.898 191.156L203.662 191.814L203.899 195.191L204.074 196.697L203.991 196.742L202.825 195.776L200.048 193.735L198.791 194.404L204.08 198.213L204.099 198.549C204.131 198.985 204.011 199.209 203.554 199.452L202.546 199.988L203.087 201.006L203.825 200.614ZM210.688 194.833C212.142 194.06 212.793 192.98 212.28 192.014C211.827 191.163 211.045 191.045 209.737 191.541L208.454 192.01C207.62 192.321 207.335 192.286 207.119 191.881C206.86 191.392 207.082 191.008 208.027 190.505C209.169 189.898 209.652 190.054 209.978 190.667L210.011 190.729L211.122 190.138L211.106 190.107C210.454 188.882 209.162 188.756 207.583 189.596C205.994 190.441 205.516 191.521 205.996 192.424C206.455 193.286 207.268 193.387 208.31 192.993L209.822 192.429C210.615 192.14 210.936 192.143 211.162 192.569C211.405 193.026 211.215 193.394 210.207 193.929C209.127 194.504 208.606 194.501 208.247 193.826L208.203 193.743L207.081 194.339L207.097 194.37C207.733 195.565 209.026 195.716 210.688 194.833ZM217.237 191.217L216.702 190.21L215.767 190.707C215.123 191.049 214.744 191.037 214.407 190.404L213.12 187.984L214.99 186.99L214.493 186.055L212.623 187.049L212.021 185.917L210.91 186.508L211.512 187.64L210.639 188.104L211.136 189.039L212.009 188.575L213.329 191.057C213.997 192.314 214.942 192.438 216.053 191.847L217.237 191.217ZM220.632 189.545C222.356 188.628 222.929 186.925 222.085 185.336C221.229 183.726 219.501 183.259 217.777 184.175C216.063 185.087 215.485 186.78 216.341 188.39C217.186 189.979 218.919 190.456 220.632 189.545ZM220.102 188.548C218.856 189.211 218.022 188.895 217.442 187.804C216.856 186.703 217.055 185.825 218.302 185.162C219.559 184.494 220.398 184.82 220.984 185.921C221.563 187.012 221.359 187.88 220.102 188.548ZM225.39 186.882L223.849 183.984C223.358 183.06 223.462 182.379 224.344 181.909C225.113 181.5 225.607 181.678 225.999 182.415L226.242 182.872L227.353 182.281L226.994 181.606C226.475 180.63 225.519 180.059 224.345 180.683C223.286 181.246 223.078 182.209 223.364 183.123L223.292 183.162L222.552 181.77L221.523 182.317L224.268 187.479L225.39 186.882ZM232.184 183.403C233.721 182.586 234.398 181.253 233.813 180.152L233.763 180.059L232.642 180.655L232.686 180.738C233.012 181.351 232.753 181.941 231.673 182.516C230.478 183.151 229.708 182.881 229.137 181.906L233.52 179.575C233.468 179.403 233.401 179.252 233.302 179.065C232.468 177.497 230.908 177.194 229.308 178.044C227.626 178.939 227.099 180.604 227.955 182.214C228.872 183.938 230.491 184.303 232.184 183.403ZM229.757 178.938C230.858 178.353 231.651 178.517 232.159 179.472L232.17 179.493L228.816 181.277C228.386 180.319 228.614 179.545 229.757 178.938Z" fill="white"/>
<line x1="252.912" y1="137.726" x2="251.498" y2="178.219" stroke="white" stroke-width="0.653522"/>
<defs>
<clipPath id="clip0_101_107">
<rect width="15.6845" height="15.6845" fill="white" transform="translate(277.96 135.324) rotate(-28)"/>
</clipPath>
<clipPath id="clip1_101_107">
<rect width="15.6845" height="15.6845" fill="white" transform="translate(42.5345 260.503) rotate(-28)"/>
</clipPath>
</defs>
</svg>
